<svg width="104" height="104" viewBox="0 0 104 104" fill="none" xmlns="http://www.w3.org/2000/svg">
<path d="M51.823 102.646C79.8918 102.646 102.646 79.8918 102.646 51.823C102.646 23.7542 79.8918 1 51.823 1C23.7542 1 1 23.7542 1 51.823C1 79.8918 23.7542 102.646 51.823 102.646Z" fill="white" stroke="black"/>
<path d="M17.141 69.671L17.039 69.772H16.734L16.632 69.874H16.429L16.225 70.077H16.123L15.919 70.28V70.381L15.716 70.584V70.685L15.614 70.787V70.888L15.512 70.99V75.25L15.614 75.352V75.555L15.716 75.656V75.758L15.818 75.859V75.96L16.327 76.468H16.429L16.53 76.569H16.734L16.836 76.671H17.243L17.345 76.772H47.3799L47.4799 76.671H47.8889L47.99 76.569H48.193L48.296 76.468H48.3979L48.601 76.265H48.702L49.008 75.96V75.859L49.1089 75.758V75.656L49.2119 75.555V75.352L49.314 75.25V71.091L49.2119 70.99V70.787L49.008 70.584V70.482L48.499 69.975H48.3979L48.296 69.874H48.193L48.0919 69.772H47.7859L47.685 69.671H17.141ZM16.938 50.498L16.836 50.599H16.632L16.53 50.701H16.327L15.716 51.309V51.411L15.614 51.512V51.715L15.512 51.816V55.976L15.614 56.077V56.28L15.716 56.381V56.483L15.818 56.584V56.686L16.225 57.092H16.327L16.53 57.295H16.836L16.938 57.396H47.7859L47.8889 57.295H48.0919L48.193 57.193H48.296L48.3979 57.092H48.499L49.008 56.584V56.483L49.1089 56.381V56.28L49.2119 56.179V55.976L49.314 55.874V51.918L49.2119 51.816V51.715L49.1089 51.614V51.512L49.008 51.411V51.309L48.601 50.903H48.499L48.296 50.701H48.0919L47.99 50.599H47.7859L47.685 50.498H16.938ZM54.099 31.122L53.9969 31.223H53.6909L53.59 31.325H53.4879L52.979 31.832V31.933L52.877 32.035V32.136L52.775 32.238V32.542L52.674 32.643V36.6L52.775 36.701V37.005L52.877 37.107V37.208L52.979 37.31V37.411L53.387 37.817H53.4879L53.6909 38.02H53.896L53.9969 38.121H54.405L54.506 38.223H76.905L77.007 38.324H77.719L77.822 38.426H78.229L78.331 38.527H78.6349L78.7379 38.629H79.043L79.145 38.73H79.349L79.451 38.831H79.654L79.756 38.933H79.857L79.96 39.034H80.0609L80.163 39.136H80.265L80.3669 39.237H80.469L80.571 39.339H80.672L80.7729 39.44H80.8759L81.0789 39.643H81.18L81.3849 39.846H81.487L82.709 41.063V41.165L82.9109 41.368V41.469L83.116 41.672V41.773L83.2169 41.875V41.976L83.318 42.078V42.179L83.421 42.281V42.382L83.5229 42.483V42.585L83.624 42.686V42.889L83.727 42.991V43.194L83.8289 43.295V43.498L83.93 43.599V43.904L84.032 44.005V44.512L84.133 44.614V46.947L84.032 47.049V47.454L83.93 47.556V47.86L83.8289 47.962V48.164L83.727 48.266V48.367L83.624 48.469V48.57L83.5229 48.672V48.773L83.421 48.875V48.976L83.2169 49.179V49.28L82.301 50.193H82.2L81.995 50.396H81.894L81.792 50.498H81.689L81.487 50.701H81.283L81.18 50.802H81.0789L80.978 50.903H80.7729L80.672 51.005H80.3669L80.265 51.106H79.96L79.857 51.208H79.2469L79.145 51.309H54.405L54.3029 51.411H53.896L53.7939 51.512H53.6909L53.4879 51.715H53.387L53.081 52.019V52.121L52.979 52.222V52.324L52.877 52.425V52.527L52.775 52.628V52.932L52.674 53.034V75.453L52.775 75.555V75.758L52.877 75.859V75.96L52.979 76.062V76.163L53.285 76.468H53.387L53.4879 76.569H53.59L53.6909 76.671H54.3029L54.405 76.772H57.866L57.9669 76.671H58.477L58.5789 76.569H58.68L58.783 76.468H58.883L59.3929 75.96V75.859L59.495 75.758V75.555L59.5959 75.453V58.512L60.004 58.106H60.1049L60.2079 58.005H72.629L72.7299 58.106H73.0359L73.137 58.208H73.24L74.0529 59.019V59.121L74.258 59.323V59.425L74.3589 59.526V59.628L74.564 59.831V59.932L74.6649 60.034V60.135L74.869 60.338V60.439L75.073 60.642V60.744L75.174 60.845V60.947L75.378 61.149V61.251L75.581 61.454V61.555L75.683 61.657V61.758L75.887 61.961V62.062L75.989 62.164V62.265L76.193 62.468V62.57L76.396 62.773V62.874L76.4969 62.975V63.077L76.702 63.28V63.381L76.8029 63.483V63.584L77.007 63.787V63.888L77.1089 63.99V64.091L77.313 64.294V64.396L77.413 64.497V64.599L77.618 64.801V64.903L77.822 65.106V65.207L77.923 65.309V65.41L78.127 65.613V65.714L78.229 65.816V65.917L78.4319 66.12V66.222L78.534 66.323V66.425L78.6349 66.526V66.627L78.84 66.83V66.932L78.9409 67.033V67.135L79.145 67.338V67.439L79.2469 67.54V67.642L79.451 67.845V67.946L79.551 68.048V68.149L79.654 68.251V68.352L79.857 68.555V68.656L79.96 68.758V68.859L80.163 69.062V69.164L80.3669 69.367V69.468L80.469 69.569V69.671L80.672 69.874V69.975L80.7729 70.077V70.178L80.978 70.381V70.482L81.0789 70.584V70.685L81.283 70.888V70.99L81.3849 71.091V71.193L81.589 71.395V71.497L81.689 71.598V71.7L81.894 71.903V72.004L82.098 72.207V72.308L82.2 72.41V72.511L82.4019 72.714V72.816L82.5049 72.917V73.019L82.709 73.221V73.323L82.81 73.424V73.526L83.0139 73.729V73.83L83.116 73.932V74.033L83.318 74.236V74.337L83.5229 74.54V74.642L83.624 74.743V74.845L83.8289 75.047V75.149L83.93 75.25V75.352L84.133 75.555V75.656L84.338 75.859V75.96L84.6429 76.265H84.745L84.948 76.468H85.049L85.1519 76.569H85.254L85.3549 76.671H85.6609L85.762 76.772H90.65L90.752 76.671H90.9539L91.0569 76.569H91.159L91.464 76.265V76.163L91.5659 76.062V75.352L91.464 75.25V75.149L91.3629 75.047V74.946L91.2599 74.845V74.743L91.159 74.642V74.54L90.9539 74.337V74.236L90.854 74.134V74.033L90.752 73.932V73.83L90.548 73.627V73.526L90.446 73.424V73.323L90.243 73.12V73.019L90.141 72.917V72.816L89.937 72.613V72.511L89.835 72.41V72.308L89.7339 72.207V72.106L89.53 71.903V71.801L89.4279 71.7V71.598L89.2249 71.395V71.294L89.1219 71.193V71.091L88.9189 70.888V70.787L88.8159 70.685V70.584L88.614 70.381V70.28L88.512 70.178V70.077L88.308 69.874V69.772L88.206 69.671V69.569L88.003 69.367V69.265L87.9 69.164V69.062L87.697 68.859V68.758L87.5959 68.656V68.555L87.392 68.352V68.251L87.2899 68.149V68.048L87.0869 67.845V67.743L86.9839 67.642V67.54L86.883 67.439V67.338L86.6779 67.135V67.033L86.577 66.932V66.83L86.374 66.627V66.526L86.272 66.425V66.323L86.068 66.12V66.019L85.9669 65.917V65.816L85.762 65.613V65.512L85.6609 65.41V65.309L85.4579 65.106V65.004L85.3549 64.903V64.801L85.254 64.7V64.599L85.049 64.396V64.294L84.948 64.193V64.091L84.745 63.888V63.787L84.6429 63.686V63.584L84.439 63.381V63.28L84.338 63.178V63.077L84.236 62.975V62.874L84.032 62.671V62.57L83.93 62.468V62.367L83.727 62.164V62.062L83.624 61.961V61.86L83.421 61.657V61.555L83.318 61.454V61.352L83.2169 61.251V61.149L83.0139 60.947V60.845L82.9109 60.744V60.642L82.709 60.439V60.338L82.607 60.236V60.135L82.4019 59.932V59.831L82.301 59.729V59.628L82.098 59.425V59.323L81.995 59.222V59.121L81.792 58.918V58.816L81.689 58.715V58.613L81.589 58.512V58.41L81.3849 58.208V58.106L81.589 57.903H81.894L81.995 57.802H82.301L82.4019 57.7H82.607L82.709 57.599H83.0139L83.116 57.497H83.2169L83.318 57.396H83.5229L83.624 57.295H83.727L83.8289 57.193H84.032L84.133 57.092H84.236L84.338 56.99H84.439L84.5399 56.889H84.6429L84.745 56.787H84.8459L85.049 56.584H85.1519L85.254 56.483H85.3549L85.559 56.28H85.6609L85.9669 55.976H86.068L86.374 55.671H86.476L88.1049 54.048V53.947L88.41 53.642V53.541L88.614 53.338V53.237L88.8159 53.034V52.932L89.021 52.729V52.628L89.1219 52.527V52.425L89.2249 52.324V52.222L89.4279 52.019V51.816L89.53 51.715V51.614L89.632 51.512V51.411L89.7339 51.309V51.208L89.835 51.106V50.903L89.937 50.802V50.599L90.038 50.498V50.396L90.141 50.295V49.99L90.243 49.889V49.686L90.344 49.585V49.28L90.446 49.179V48.773L90.548 48.672V48.164L90.65 48.063V47.251L90.752 47.15V44.309L90.65 44.208V43.498L90.548 43.396V42.788L90.446 42.686V42.281L90.344 42.179V41.875L90.243 41.773V41.469L90.141 41.368V41.165L90.038 41.063V40.759L89.937 40.657V40.455L89.835 40.353V40.252L89.7339 40.15V39.947L89.632 39.846V39.643L89.53 39.542V39.44L89.4279 39.339V39.237L89.326 39.136V39.034L89.2249 38.933V38.831L89.1219 38.73V38.629L89.021 38.527V38.426L88.9189 38.324V38.223L88.8159 38.121V38.02L88.614 37.817V37.716L88.512 37.614V37.513L88.308 37.31V37.208L88.1049 37.005V36.904L87.799 36.6V36.498L87.392 36.092V35.991L86.068 34.672H85.9669L85.4579 34.165H85.3549L85.1519 33.962H85.049L84.745 33.658H84.6429L84.5399 33.556H84.439L84.236 33.353H84.133L84.032 33.252H83.93L83.727 33.049H83.624L83.5229 32.948H83.421L83.318 32.846H83.2169L83.116 32.745H83.0139L82.9109 32.643H82.709L82.607 32.542H82.5049L82.4019 32.44H82.301L82.2 32.339H81.995L81.894 32.238H81.689L81.589 32.136H81.3849L81.283 32.035H81.0789L80.978 31.933H80.7729L80.672 31.832H80.3669L80.265 31.73H79.96L79.857 31.629H79.551L79.451 31.527H78.9409L78.84 31.426H78.331L78.229 31.325H77.516L77.413 31.223H76.193L76.091 31.122H54.099ZM17.243 31.122L17.141 31.223H16.836L16.734 31.325H16.53L16.327 31.527H16.225L15.818 31.933V32.035L15.716 32.136V32.238L15.614 32.339V32.542L15.512 32.643V36.701L15.614 36.803V37.005L15.716 37.107V37.208L15.818 37.31V37.411L16.225 37.817H16.327L16.429 37.918H16.53L16.632 38.02H16.734L16.836 38.121H17.243L17.345 38.223H47.5829L47.685 38.121H47.99L48.0919 38.02H48.193L48.296 37.918H48.3979L48.499 37.817H48.601L49.008 37.411V37.31L49.1089 37.208V37.107L49.2119 37.005V36.803L49.314 36.701V32.643L49.2119 32.542V32.339L49.1089 32.238V32.136L48.907 31.933V31.832L48.601 31.527H48.499L48.3979 31.426H48.296L48.193 31.325H48.0919L47.99 31.223H47.685L47.5829 31.122H17.243Z" fill="black"/>
</svg>
