<svg width="54" height="46" viewBox="0 0 54 46" fill="none" xmlns="http://www.w3.org/2000/svg">
<g clip-path="url(#clip0_30_40)">
<path d="M37.6835 15.9347C37.4509 15.4178 37.0948 14.9484 36.638 14.5568C36.1812 14.1652 35.6339 13.8601 35.0313 13.661C34.2016 13.3973 33.3253 13.2579 32.4405 13.249C30.9693 13.1915 30.5282 13.1771 26.8011 13.1771C23.0741 13.1771 22.633 13.1915 21.1617 13.249C20.2761 13.2577 19.3987 13.3971 18.5682 13.661C17.9658 13.8606 17.4189 14.1663 16.9626 14.5583C16.5063 14.9503 16.1507 15.42 15.9188 15.9371C15.6115 16.6491 15.449 17.4012 15.4386 18.1604C15.3716 19.423 15.3548 19.8016 15.3548 23C15.3548 26.1984 15.3716 26.577 15.4386 27.8396C15.4487 28.5996 15.6111 29.3525 15.9188 30.0653C16.1513 30.5822 16.5075 31.0516 16.9643 31.4432C17.4211 31.8348 17.9684 32.1399 18.571 32.339C19.4007 32.6027 20.277 32.7421 21.1617 32.751C22.633 32.8085 23.0741 32.8205 26.8011 32.8205C30.5282 32.8205 30.9693 32.8085 32.4405 32.7486C33.326 32.7407 34.2033 32.6021 35.0341 32.339C35.6364 32.1394 36.1834 31.8337 36.6397 31.4417C37.096 31.0497 37.4516 30.58 37.6835 30.0629C37.9908 29.3509 38.1532 28.5988 38.1637 27.8396C38.2307 26.577 38.2447 26.1984 38.2447 23C38.2447 19.8016 38.2307 19.423 38.1609 18.1604C38.1517 17.4005 37.9902 16.6476 37.6835 15.9347ZM26.8011 29.1525C25.3832 29.1525 23.9971 28.7917 22.8181 28.1156C21.6391 27.4396 20.7202 26.4787 20.1776 25.3545C19.6349 24.2302 19.493 22.9932 19.7696 21.7997C20.0462 20.6062 20.729 19.51 21.7317 18.6495C22.7343 17.7891 24.0118 17.2031 25.4025 16.9657C26.7932 16.7283 28.2347 16.8502 29.5447 17.3158C30.8547 17.7815 31.9744 18.5701 32.7622 19.5819C33.55 20.5936 33.9704 21.7831 33.9704 23C33.9704 24.6317 33.2151 26.1967 31.8706 27.3505C30.5261 28.5043 28.7025 29.1525 26.8011 29.1525ZM34.2524 18.043C33.9211 18.043 33.5972 17.9587 33.3218 17.8008C33.0463 17.6428 32.8316 17.4183 32.7048 17.1556C32.5781 16.893 32.5449 16.6039 32.6095 16.3251C32.6741 16.0462 32.8337 15.7901 33.0679 15.5891C33.3022 15.388 33.6007 15.2511 33.9256 15.1956C34.2505 15.1402 34.5873 15.1686 34.8934 15.2774C35.1995 15.3862 35.4611 15.5705 35.6452 15.8069C35.8292 16.0433 35.9275 16.3212 35.9275 16.6055C35.9275 16.9868 35.751 17.3524 35.4369 17.622C35.1227 17.8916 34.6967 18.043 34.2524 18.043ZM31.455 23C31.455 23.7899 31.1821 24.5621 30.6707 25.2189C30.1593 25.8757 29.4325 26.3876 28.5821 26.6898C27.7317 26.9921 26.796 27.0712 25.8932 26.9171C24.9904 26.763 24.1612 26.3826 23.5103 25.8241C22.8595 25.2655 22.4162 24.5539 22.2367 23.7792C22.0571 23.0044 22.1492 22.2014 22.5015 21.4716C22.8537 20.7418 23.4502 20.1181 24.2156 19.6792C24.9809 19.2404 25.8807 19.0061 26.8011 19.0061C28.0354 19.0061 29.2192 19.4269 30.0919 20.1759C30.9647 20.9249 31.455 21.9408 31.455 23ZM26.8011 0C21.5004 0 16.3186 1.34893 11.9112 3.8762C7.50381 6.40347 4.06864 9.99558 2.04013 14.1983C0.0116124 18.401 -0.519139 23.0255 0.514988 27.4871C1.54912 31.9486 4.10167 36.0468 7.84988 39.2635C11.5981 42.4801 16.3736 44.6706 21.5725 45.5581C26.7714 46.4455 32.1602 45.99 37.0575 44.2492C41.9547 42.5084 46.1405 39.5604 49.0854 35.7781C52.0304 31.9958 53.6022 27.549 53.6022 23C53.6022 16.9 50.7786 11.0499 45.7524 6.73654C40.7262 2.42321 33.9092 0 26.8011 0ZM40.6763 27.9378C40.6527 28.9319 40.4327 29.9154 40.0258 30.8464C39.6673 31.642 39.119 32.3645 38.4161 32.9677C37.7133 33.5709 36.8713 34.0414 35.9442 34.3491C34.8603 34.698 33.7152 34.8867 32.5578 34.9073C31.067 34.9648 30.5924 34.9792 26.8011 34.9792C23.0099 34.9792 22.5353 34.9648 21.0445 34.9073C19.887 34.8867 18.742 34.698 17.658 34.3491C16.7309 34.0414 15.889 33.5709 15.1861 32.9677C14.4833 32.3645 13.935 31.642 13.5765 30.8464C13.1699 29.9161 12.9499 28.9335 12.926 27.9402C12.859 26.6608 12.8422 26.2535 12.8422 23C12.8422 19.7465 12.859 19.3392 12.926 18.0598C12.949 17.0666 13.168 16.084 13.5737 15.1536C13.9322 14.3574 14.4807 13.6342 15.1841 13.0306C15.8875 12.427 16.7302 11.9562 17.658 11.6485C18.7422 11.3004 19.8872 11.1125 21.0445 11.0927C22.5353 11.0352 23.0099 11.0208 26.8011 11.0208C30.5924 11.0208 31.067 11.0352 32.5578 11.0927C33.7151 11.1125 34.8601 11.3004 35.9442 11.6485C36.8716 11.9565 37.7137 12.4274 38.4166 13.031C39.1195 13.6346 39.6676 14.3576 40.0258 15.1536C40.4324 16.0839 40.6523 17.0665 40.6763 18.0598C40.7433 19.3392 40.76 19.7465 40.76 23C40.76 26.2535 40.7433 26.6584 40.6763 27.9378Z" fill="black"/>
</g>
<defs>
<clipPath id="clip0_30_40">
<rect width="53.6022" height="46" fill="white"/>
</clipPath>
</defs>
</svg>
