<svg width="88" height="56" viewBox="0 0 88 56" fill="none" xmlns="http://www.w3.org/2000/svg">
<path d="M7.12693 45.195L7.02512 45.2964H6.71968L6.61786 45.3979H6.41424L6.21061 45.6008H6.1088L5.90518 45.8037V45.9051L5.70155 46.108V46.2094L5.59974 46.3109V46.4123L5.49792 46.5138V50.7745L5.59974 50.8759V51.0788L5.70155 51.1803V51.2817L5.80336 51.3832V51.4846L6.31243 51.9918H6.41424L6.51605 52.0933H6.71968L6.82149 52.1947H7.22874L7.33055 52.2962H37.3653L37.4671 52.1947H37.8744L37.9762 52.0933H38.1798L38.2816 51.9918H38.3834L38.5871 51.7889H38.6889L38.9943 51.4846V51.3832L39.0961 51.2817V51.1803L39.1979 51.0788V50.8759L39.2998 50.7745V46.6152L39.1979 46.5138V46.3109L38.9943 46.108V46.0066L38.4852 45.4993H38.3834L38.2816 45.3979H38.1798L38.078 45.2964H37.7726L37.6707 45.195H7.12693ZM6.9233 26.0218L6.82149 26.1233H6.61786L6.51605 26.2247H6.31243L5.70155 26.8334V26.9348L5.59974 27.0363V27.2392L5.49792 27.3406V31.4999L5.59974 31.6013V31.8042L5.70155 31.9056V32.0071L5.80336 32.1085V32.21L6.21061 32.6158H6.31243L6.51605 32.8187H6.82149L6.9233 32.9201H37.7726L37.8744 32.8187H38.078L38.1798 32.7172H38.2816L38.3834 32.6158H38.4852L38.9943 32.1085V32.0071L39.0961 31.9056V31.8042L39.1979 31.7028V31.4999L39.2998 31.3984V27.4421L39.1979 27.3406V27.2392L39.0961 27.1377V27.0363L38.9943 26.9348V26.8334L38.5871 26.4276H38.4852L38.2816 26.2247H38.078L37.9762 26.1233H37.7726L37.6707 26.0218H6.9233ZM44.0849 6.64575L43.9831 6.7472H43.6777L43.5759 6.84864H43.4741L42.965 7.35587V7.45731L42.8632 7.55876V7.66021L42.7614 7.76165V8.06599L42.6596 8.16743V12.1238L42.7614 12.2252V12.5296L42.8632 12.631V12.7325L42.965 12.8339V12.9354L43.3723 13.3411H43.4741L43.6777 13.544H43.8813L43.9831 13.6455H44.3904L44.4922 13.7469H66.891L66.9928 13.8484H67.7055L67.8073 13.9498H68.2146L68.3164 14.0513H68.6218L68.7236 14.1527H69.0291L69.1309 14.2542H69.3345L69.4363 14.3556H69.6399L69.7418 14.457H69.8436L69.9454 14.5585H70.0472L70.149 14.6599H70.2508L70.3526 14.7614H70.4544L70.5563 14.8628H70.6581L70.7599 14.9643H70.8617L71.0653 15.1672H71.1671L71.3708 15.3701H71.4726L72.6943 16.5874V16.6888L72.8979 16.8917V16.9932L73.1016 17.1961V17.2975L73.2034 17.399V17.5004L73.3052 17.6019V17.7033L73.407 17.8047V17.9062L73.5088 18.0076V18.1091L73.6106 18.2105V18.4134L73.7125 18.5149V18.7177L73.8143 18.8192V19.0221L73.9161 19.1235V19.4279L74.0179 19.5293V20.0365L74.1197 20.138V22.4712L74.0179 22.5727V22.9785L73.9161 23.0799V23.3842L73.8143 23.4857V23.6886L73.7125 23.79V23.8915L73.6106 23.9929V24.0944L73.5088 24.1958V24.2972L73.407 24.3987V24.5001L73.2034 24.703V24.8045L72.2871 25.7175H72.1853L71.9816 25.9204H71.8798L71.778 26.0218H71.6762L71.4726 26.2247H71.2689L71.1671 26.3262H71.0653L70.9635 26.4276H70.7599L70.6581 26.529H70.3526L70.2508 26.6305H69.9454L69.8436 26.7319H69.2327L69.1309 26.8334H44.3904L44.2886 26.9348H43.8813L43.7795 27.0363H43.6777L43.4741 27.2392H43.3723L43.0668 27.5435V27.6449L42.965 27.7464V27.8478L42.8632 27.9493V28.0507L42.7614 28.1522V28.4565L42.6596 28.558V50.9774L42.7614 51.0788V51.2817L42.8632 51.3832V51.4846L42.965 51.586V51.6875L43.2704 51.9918H43.3723L43.4741 52.0933H43.5759L43.6777 52.1947H44.2886L44.3904 52.2962H47.852L47.9538 52.1947H48.4629L48.5647 52.0933H48.6665L48.7683 51.9918H48.8701L49.3792 51.4846V51.3832L49.481 51.2817V51.0788L49.5828 50.9774V34.036L49.9901 33.6302H50.0919L50.1937 33.5288H62.6149L62.7167 33.6302H63.0221L63.1239 33.7317H63.2257L64.0402 34.5432V34.6447L64.2439 34.8476V34.949L64.3457 35.0505V35.1519L64.5493 35.3548V35.4562L64.6511 35.5577V35.6591L64.8547 35.862V35.9635L65.0584 36.1664V36.2678L65.1602 36.3692V36.4707L65.3638 36.6736V36.775L65.5674 36.9779V37.0794L65.6692 37.1808V37.2823L65.8729 37.4851V37.5866L65.9747 37.688V37.7895L66.1783 37.9924V38.0938L66.3819 38.2967V38.3981L66.4837 38.4996V38.601L66.6874 38.8039V38.9054L66.7892 39.0068V39.1083L66.9928 39.3112V39.4126L67.0946 39.514V39.6155L67.2983 39.8184V39.9198L67.4001 40.0213V40.1227L67.6037 40.3256V40.4271L67.8073 40.6299V40.7314L67.9091 40.8328V40.9343L68.1128 41.1372V41.2386L68.2146 41.3401V41.4415L68.4182 41.6444V41.7458L68.52 41.8473V41.9487L68.6218 42.0502V42.1516L68.8254 42.3545V42.456L68.9273 42.5574V42.6589L69.1309 42.8617V42.9632L69.2327 43.0646V43.1661L69.4363 43.369V43.4704L69.5381 43.5719V43.6733L69.6399 43.7748V43.8762L69.8436 44.0791V44.1805L69.9454 44.282V44.3834L70.149 44.5863V44.6878L70.3526 44.8907V44.9921L70.4544 45.0935V45.195L70.6581 45.3979V45.4993L70.7599 45.6008V45.7022L70.9635 45.9051V46.0066L71.0653 46.108V46.2094L71.2689 46.4123V46.5138L71.3708 46.6152V46.7167L71.5744 46.9196V47.021L71.6762 47.1225V47.2239L71.8798 47.4268V47.5282L72.0835 47.7311V47.8326L72.1853 47.934V48.0355L72.3889 48.2383V48.3398L72.4907 48.4412V48.5427L72.6943 48.7456V48.847L72.7961 48.9485V49.0499L72.9998 49.2528V49.3542L73.1016 49.4557V49.5571L73.3052 49.76V49.8615L73.5088 50.0644V50.1658L73.6106 50.2673V50.3687L73.8143 50.5716V50.673L73.9161 50.7745V50.8759L74.1197 51.0788V51.1803L74.3233 51.3832V51.4846L74.6288 51.7889H74.7306L74.9342 51.9918H75.036L75.1378 52.0933H75.2396L75.3415 52.1947H75.6469L75.7487 52.2962H80.6357L80.7375 52.1947H80.9412L81.043 52.0933H81.1448L81.4502 51.7889V51.6875L81.552 51.586V50.8759L81.4502 50.7745V50.673L81.3484 50.5716V50.4701L81.2466 50.3687V50.2673L81.1448 50.1658V50.0644L80.9412 49.8615V49.76L80.8393 49.6586V49.5571L80.7375 49.4557V49.3542L80.5339 49.1514V49.0499L80.4321 48.9485V48.847L80.2285 48.6441V48.5427L80.1267 48.4412V48.3398L79.923 48.1369V48.0355L79.8212 47.934V47.8326L79.7194 47.7311V47.6297L79.5158 47.4268V47.3253L79.414 47.2239V47.1225L79.2103 46.9196V46.8181L79.1085 46.7167V46.6152L78.9049 46.4123V46.3109L78.8031 46.2094V46.108L78.5995 45.9051V45.8037L78.4977 45.7022V45.6008L78.294 45.3979V45.2964L78.1922 45.195V45.0935L77.9886 44.8907V44.7892L77.8868 44.6878V44.5863L77.6832 44.3834V44.282L77.5813 44.1805V44.0791L77.3777 43.8762V43.7748L77.2759 43.6733V43.5719L77.0723 43.369V43.2675L76.9705 43.1661V43.0646L76.8686 42.9632V42.8617L76.665 42.6589V42.5574L76.5632 42.456V42.3545L76.3596 42.1516V42.0502L76.2578 41.9487V41.8473L76.0541 41.6444V41.543L75.9523 41.4415V41.3401L75.7487 41.1372V41.0357L75.6469 40.9343V40.8328L75.4433 40.6299V40.5285L75.3415 40.4271V40.3256L75.2396 40.2242V40.1227L75.036 39.9198V39.8184L74.9342 39.7169V39.6155L74.7306 39.4126V39.3112L74.6288 39.2097V39.1083L74.4251 38.9054V38.8039L74.3233 38.7025V38.601L74.2215 38.4996V38.3981L74.0179 38.1953V38.0938L73.9161 37.9924V37.8909L73.7125 37.688V37.5866L73.6106 37.4851V37.3837L73.407 37.1808V37.0794L73.3052 36.9779V36.8765L73.2034 36.775V36.6736L72.9998 36.4707V36.3692L72.8979 36.2678V36.1664L72.6943 35.9635V35.862L72.5925 35.7606V35.6591L72.3889 35.4562V35.3548L72.2871 35.2533V35.1519L72.0835 34.949V34.8476L71.9816 34.7461V34.6447L71.778 34.4418V34.3403L71.6762 34.2389V34.1374L71.5744 34.036V33.9346L71.3708 33.7317V33.6302L71.5744 33.4273H71.8798L71.9816 33.3259H72.2871L72.3889 33.2244H72.5925L72.6943 33.123H72.9998L73.1016 33.0215H73.2034L73.3052 32.9201H73.5088L73.6106 32.8187H73.7125L73.8143 32.7172H74.0179L74.1197 32.6158H74.2215L74.3233 32.5143H74.4251L74.527 32.4129H74.6288L74.7306 32.3114H74.8324L75.036 32.1085H75.1378L75.2396 32.0071H75.3415L75.5451 31.8042H75.6469L75.9523 31.4999H76.0541L76.3596 31.1955H76.4614L78.0904 29.5724V29.471L78.3958 29.1666V29.0652L78.5995 28.8623V28.7608L78.8031 28.558V28.4565L79.0067 28.2536V28.1522L79.1085 28.0507V27.9493L79.2103 27.8478V27.7464L79.414 27.5435V27.3406L79.5158 27.2392V27.1377L79.6176 27.0363V26.9348L79.7194 26.8334V26.7319L79.8212 26.6305V26.4276L79.923 26.3262V26.1233L80.0248 26.0218V25.9204L80.1267 25.8189V25.5146L80.2285 25.4131V25.2103L80.3303 25.1088V24.8045L80.4321 24.703V24.2972L80.5339 24.1958V23.6886L80.6357 23.5871V22.7756L80.7375 22.6741V19.8336L80.6357 19.7322V19.0221L80.5339 18.9206V18.312L80.4321 18.2105V17.8047L80.3303 17.7033V17.399L80.2285 17.2975V16.9932L80.1267 16.8917V16.6888L80.0248 16.5874V16.2831L79.923 16.1816V15.9787L79.8212 15.8773V15.7758L79.7194 15.6744V15.4715L79.6176 15.3701V15.1672L79.5158 15.0657V14.9643L79.414 14.8628V14.7614L79.3121 14.6599V14.5585L79.2103 14.457V14.3556L79.1085 14.2542V14.1527L79.0067 14.0513V13.9498L78.9049 13.8484V13.7469L78.8031 13.6455V13.544L78.5995 13.3411V13.2397L78.4977 13.1383V13.0368L78.294 12.8339V12.7325L78.0904 12.5296V12.4281L77.785 12.1238V12.0224L77.3777 11.6166V11.5151L76.0541 10.1963H75.9523L75.4433 9.68911H75.3415L75.1378 9.48622H75.036L74.7306 9.18189H74.6288L74.527 9.08044H74.4251L74.2215 8.87755H74.1197L74.0179 8.7761H73.9161L73.7125 8.57321H73.6106L73.5088 8.47177H73.407L73.3052 8.37032H73.2034L73.1016 8.26888H72.9998L72.8979 8.16743H72.6943L72.5925 8.06599H72.4907L72.3889 7.96454H72.2871L72.1853 7.8631H71.9816L71.8798 7.76165H71.6762L71.5744 7.66021H71.3708L71.2689 7.55876H71.0653L70.9635 7.45731H70.7599L70.6581 7.35587H70.3526L70.2508 7.25442H69.9454L69.8436 7.15298H69.5381L69.4363 7.05153H68.9273L68.8254 6.95009H68.3164L68.2146 6.84864H67.5019L67.4001 6.7472H66.1783L66.0765 6.64575H44.0849ZM7.22874 6.64575L7.12693 6.7472H6.82149L6.71968 6.84864H6.51605L6.31243 7.05153H6.21061L5.80336 7.45731V7.55876L5.70155 7.66021V7.76165L5.59974 7.8631V8.06599L5.49792 8.16743V12.2252L5.59974 12.3267V12.5296L5.70155 12.631V12.7325L5.80336 12.8339V12.9354L6.21061 13.3411H6.31243L6.41424 13.4426H6.51605L6.61786 13.544H6.71968L6.82149 13.6455H7.22874L7.33055 13.7469H37.5689L37.6707 13.6455H37.9762L38.078 13.544H38.1798L38.2816 13.4426H38.3834L38.4852 13.3411H38.5871L38.9943 12.9354V12.8339L39.0961 12.7325V12.631L39.1979 12.5296V12.3267L39.2998 12.2252V8.16743L39.1979 8.06599V7.8631L39.0961 7.76165V7.66021L38.8925 7.45731V7.35587L38.5871 7.05153H38.4852L38.3834 6.95009H38.2816L38.1798 6.84864H38.078L37.9762 6.7472H37.6707L37.5689 6.64575H7.22874Z" fill="black"/>
</svg>
